Coordinates
version=1
nRows=10
nColumns=46
inDegrees=yes

Units are S.I. units (second, meters, Newtons, ...)
Angles are in degrees.

endheader
time	pelvis_tilt	pelvis_list	pelvis_rotation	pelvis_tx	pelvis_ty	pelvis_tz	bb_angle	bb_tx	bb_ty	bb_tz	hip_flexion_r	hip_adduction_r	hip_rotation_r	knee_angle_r	knee_angle_r_beta	ankle_angle_r	subtalar_angle_r	mtp_angle_r	crank_angle_r	hip_flexion_l	hip_adduction_l	hip_rotation_l	knee_angle_l	knee_angle_l_beta	ankle_angle_l	subtalar_angle_l	mtp_angle_l	crank_angle_l	lumbar_extension	lumbar_bending	lumbar_rotation	arm_flex_r	arm_add_r	arm_rot_r	elbow_flex_r	pro_sup_r	wrist_flex_r	wrist_dev_r	arm_flex_l	arm_add_l	arm_rot_l	elbow_flex_l	pro_sup_l	wrist_flex_l	wrist_dev_l
      7.50500000	    -22.58559190	      1.28482363	      9.27803171	      0.37109925	      1.11727945	     -0.29284726	      0.00000000	      0.50000000	      0.00000000	      0.25000000	     42.30005549	     -9.67418284	     -1.19028975	     61.53138442	      1.07392525	    -24.90261819	     -4.08970774	      0.00000000	      0.00000000	     70.58122208	     -3.44908758	     -2.47423756	     76.02380188	      1.32686565	      5.63928290	     -2.97344924	      0.00000000	      0.00000000	    -69.11812949	     -3.03971806	     -7.26159140	     68.64202217	    -22.50491824	     30.90588827	     63.65830553	     45.18587245	      0.00000000	      0.00000000	     68.58973114	    -16.71922002	     23.87119403	     85.01199439	     46.60826479	      0.00000000	      0.00000000
      7.51000000	    -22.31334978	      0.73993029	      8.84008413	      0.37054150	      1.11733056	     -0.29354355	      0.00000000	      0.50000000	      0.00000000	      0.25000000	     43.31387132	     -8.78996201	     -0.55997662	     63.93703097	      1.11591170	    -24.91201914	     -4.29715289	      0.00000000	      0.00000000	     69.17184706	     -4.14557515	     -2.73383819	     73.56330601	      1.28392190	      4.71233847	     -3.26563989	      0.00000000	      0.00000000	    -68.98127383	     -2.33754810	     -8.47606059	     71.43141786	    -19.65506959	     34.92681281	     58.85711304	     44.86768677	      0.00000000	      0.00000000	     66.19581975	    -18.40106434	     19.77317416	     87.97776834	     46.63971081	      0.00000000	      0.00000000
      7.51500000	    -21.95743667	      0.09290540	      8.42038761	      0.36997174	      1.11719993	     -0.29418848	      0.00000000	      0.50000000	      0.00000000	      0.25000000	     44.23829291	     -7.85318782	     -0.16081414	     66.35530056	      1.15811847	    -24.71181202	     -4.51802644	      0.00000000	      0.00000000	     67.77021176	     -4.87988185	     -2.75075776	     71.22014851	      1.24302609	      3.65433606	     -2.87452188	      0.00000000	      0.00000000	    -69.06802737	     -2.04348826	     -7.87474449	     71.84163364	    -19.44071761	     35.00286002	     58.77202277	     44.86340674	      0.00000000	      0.00000000	     65.82958759	    -18.50405479	     19.63958530	     88.02117257	     46.63381434	      0.00000000	      0.00000000
      7.52000000	    -21.77502776	     -0.37546312	      7.83205332	      0.36938039	      1.11660568	     -0.29470811	      0.00000000	      0.50000000	      0.00000000	      0.25000000	     45.40959072	     -6.99610031	      0.42955841	     68.84275831	      1.20153280	    -24.36540333	     -4.59244945	      0.00000000	      0.00000000	     66.49303470	     -5.64770531	     -2.95397858	     68.92723806	      1.20300725	      2.53133620	     -2.48162594	      0.00000000	      0.00000000	    -68.90192018	     -1.68356223	     -8.53768157	     73.57156681	    -17.33601634	     37.32086443	     55.62828025	     44.66334572	      0.00000000	      0.00000000	     64.14460476	    -19.70795175	     16.93513386	     89.87377837	     46.63229321	      0.00000000	      0.00000000
      7.52500000	    -21.52954310	     -0.91250913	      7.30835374	      0.36870774	      1.11572431	     -0.29545351	      0.00000000	      0.50000000	      0.00000000	      0.25000000	     46.49278374	     -6.15484909	      0.81481041	     71.36878226	      1.24562023	    -23.70633772	     -4.87260071	      0.00000000	      0.00000000	     65.21394811	     -6.36151010	     -3.03943881	     66.73485061	      1.16474287	      1.32114449	     -2.09654210	      0.00000000	      0.00000000	    -68.85209814	     -1.48384959	     -7.98156357	     73.93919473	    -17.14312377	     37.41534897	     55.54981710	     44.66415688	      0.00000000	      0.00000000	     63.71535202	    -19.87163655	     16.81529016	     89.90847530	     46.62749111	      0.00000000	      0.00000000
      7.53000000	    -21.42382117	     -1.26777596	      6.59482309	      0.36799797	      1.11435640	     -0.29602716	      0.00000000	      0.50000000	      0.00000000	      0.25000000	     47.82436404	     -5.42204598	      1.35988067	     74.02984460	      1.29206453	    -22.75933371	     -4.70089693	      0.00000000	      0.00000000	     64.02192521	     -7.04595670	     -3.28235093	     64.58048047	      1.12714202	     -0.18440612	     -2.18090997	      0.00000000	      0.00000000	    -68.58112623	     -1.23792259	     -8.61589230	     75.45859021	    -15.18992150	     39.82398798	     52.74270751	     44.53779936	      0.00000000	      0.00000000	     62.00422364	    -21.25620663	     14.51880452	     91.70504862	     46.66679938	      0.00000000	      0.00000000
      7.53500000	    -21.19818884	     -1.84188433	      5.97923330	      0.36728078	      1.11291464	     -0.29673264	      0.00000000	      0.50000000	      0.00000000	      0.25000000	     48.97105063	     -4.59923324	      1.52738277	     76.62467521	      1.33735287	    -21.72599983	     -5.01205515	      0.00000000	      0.00000000	     62.77837778	     -7.72881585	     -3.17817923	     62.50077515	      1.09084431	     -1.52557032	     -1.85127381	      0.00000000	      0.00000000	    -68.45384016	     -1.08835645	     -7.93968665	     75.83169826	    -15.03071674	     39.91447439	     52.68085466	     44.53883176	      0.00000000	      0.00000000	     61.59967679	    -21.42414180	     14.44604237	     91.71089559	     46.66314203	      0.00000000	      0.00000000
      7.54000000	    -21.16533305	     -2.03897214	      5.09836969	      0.36671169	      1.11091055	     -0.29728283	      0.00000000	      0.50000000	      0.00000000	      0.25000000	     50.44814133	     -3.96077333	      2.15264224	     79.39926249	      1.38577855	    -20.33693026	     -4.61954601	      0.00000000	      0.00000000	     61.56540883	     -8.31745453	     -3.55291711	     60.46273648	      1.05527383	     -3.07132129	     -2.45054417	      0.00000000	      0.00000000	    -68.10420210	     -1.26588497	     -7.66075194	     76.08363852	    -14.62495873	     40.45141637	     52.30775341	     44.54894602	      0.00000000	      0.00000000	     60.78405490	    -21.83368573	     13.97637867	     91.88972594	     46.64927404	      0.00000000	      0.00000000
      7.54500000	    -21.06229238	     -2.38601125	      4.32565560	      0.36608492	      1.10867148	     -0.29798455	      0.00000000	      0.50000000	      0.00000000	      0.25000000	     51.83623286	     -3.31926748	      2.46957895	     82.15779952	      1.43392411	    -18.82115669	     -4.39761591	      0.00000000	      0.00000000	     60.33376840	     -8.82529955	     -3.54774939	     58.50535255	      1.02111103	     -4.54404334	     -2.90975005	      0.00000000	      0.00000000	    -67.83284234	     -0.85843424	     -8.51663451	     77.82959318	    -12.24329990	     43.60737267	     48.87644150	     44.42012010	      0.00000000	      0.00000000	     58.50621780	    -23.85711760	     11.46042779	     94.36344557	     46.78131153	      0.00000000	      0.00000000
      7.55000000	    -20.98579331	     -2.73405457	      3.46866292	      0.36578458	      1.10637404	     -0.29861238	      0.00000000	      0.50000000	      0.00000000	      0.25000000	     53.23255623	     -2.62641176	      2.78930173	     84.86609029	      1.48119270	    -17.21488987	     -4.11620301	      0.00000000	      0.00000000	     59.05864233	     -9.37631940	     -3.57910428	     56.60375390	      0.98792187	     -5.93295961	     -3.50175031	      0.00000000	      0.00000000	    -67.52144356	     -0.91908922	     -8.00864197	     78.21947693	    -11.72619464	     44.07377977	     48.30139760	     44.39888530	      0.00000000	      0.00000000	     57.69932473	    -24.22979814	     11.13572803	     94.46736545	     46.76543273	      0.00000000	      0.00000000
